# xmcd
#
# Track frame offsets:
#	150
#	10568
#	23785
#	35532
#	45701
#	55985
#	68536
#	80341
#	89850
#	100629
#	114899
#	125801
#	136930
#	146931
#	156357
#	164174
#	176148
#	186928
#	197929
#	207963
#
# Disc length: 2902 seconds
#
# Revision: 1
# Processed by: cddbd v1.5.2PL0 Copyright (c) Steve Scherf et al.
# Submitted via: EZCDAudioConverter 3.1.7.1
#
DISCID=230b5414
DTITLE=Various Artist - 100 Hits: Northern Soul [CD3]
DYEAR=2009
DGENRE=R&B
TTITLE0=Erma Franklin - Whispers (Getting Louder)
TTITLE1=Chairmen of the Board - (You've Got Me) Dangling on a String
TTITLE2=Paul Anka - I Can't Help Loving You
TTITLE3=The M.V.P.'s - Turnin' My Heartbeat Up
TTITLE4=Al Greene and the Soul Mates - Don't Leave Me
TTITLE5=Bob Brady and the Con Chords - Everybody's Goin' to the Love-In
TTITLE6=Beverly Ann - He's Coming Home
TTITLE7=The Metros - I'll Never Forget You
TTITLE8=James and Bobby Purify - Let Love Come Between Us
TTITLE9=The Shirelles - Look What You've Done to My Heart
TTITLE10=Willie Kendrick - Change Your Ways
TTITLE11=The Ivories - Please Stay
TTITLE12=Sharon Scott - It's Better
TTITLE13=Shane Martin - I Need You
TTITLE14=Don-Ray - Born a Loser
TTITLE15=Jack Montgomery - Dearly Beloved
TTITLE16=The Charmaines - Eternally
TTITLE17=Billy Butler - Right Track
TTITLE18=Susan Barrett - What's It Gonna Be
TTITLE19=The Artistics - Nothing But Heartaches (Keep Haunting Me)
EXTD=
EXTT0=
EXTT1=
EXTT2=
EXTT3=
EXTT4=
EXTT5=
EXTT6=
EXTT7=
EXTT8=
EXTT9=
EXTT10=
EXTT11=
EXTT12=
EXTT13=
EXTT14=
EXTT15=
EXTT16=
EXTT17=
EXTT18=
EXTT19=
PLAYORDER=
